<svg width="57" height="34" viewBox="0 0 57 34" fill="none" xmlns="http://www.w3.org/2000/svg">
<path fill-rule="evenodd" clip-rule="evenodd" d="M17 33C25.8366 33 33 25.8366 33 17C33 8.16344 25.8366 1 17 1C8.16344 1 1 8.16344 1 17C1 25.8366 8.16344 33 17 33Z" stroke="#6837EF"/>
<path fill-rule="evenodd" clip-rule="evenodd" d="M49 18.0572L51.8619 15.1953C52.1223 14.9349 52.5444 14.9349 52.8047 15.1953C53.0651 15.4556 53.0651 15.8777 52.8047 16.1381L49.4714 19.4714C49.2111 19.7318 48.7889 19.7318 48.5286 19.4714L45.1953 16.1381C44.9349 15.8777 44.9349 15.4556 45.1953 15.1953C45.4556 14.9349 45.8777 14.9349 46.1381 15.1953L49 18.0572Z" fill="#696D8C"/>
</svg>
